<svg width="148" height="84" viewBox="0 0 148 84" fill="none" xmlns="http://www.w3.org/2000/svg">
<path d="M40.9073 52.1C40.3073 52.1 39.8406 52.0667 39.5073 52C39.2073 51.9667 38.874 51.8667 38.5073 51.7C38.1073 51.5 37.8073 51.2167 37.6073 50.85C37.6073 50.45 37.7906 50.25 38.1573 50.25C38.524 50.25 38.9906 50.3667 39.5573 50.6C40.0906 50.8667 40.5406 51 40.9073 51C41.6406 51 42.3073 50.7 42.9073 50.1C43.5406 49.5 44.024 48.7167 44.3573 47.75C45.024 45.85 45.3573 44.1667 45.3573 42.7C45.3573 41.0667 45.124 39.4167 44.6573 37.75C44.1906 36.0833 43.574 34.5167 42.8073 33.05C42.6406 32.6833 42.3573 32.1333 41.9573 31.4C41.124 29.7333 40.4906 28.4333 40.0573 27.5C39.624 26.5667 39.2406 25.5333 38.9073 24.4C38.4406 22.9 38.2073 21.2833 38.2073 19.55C38.2073 18.45 38.374 17.4 38.7073 16.4C39.074 15.3667 39.6406 14.4833 40.4073 13.75C41.2406 12.9833 42.174 12.6 43.2073 12.6C43.6073 12.6 44.0906 12.7667 44.6573 13.1C45.224 13.4 45.5073 13.7 45.5073 14C45.5073 14.2667 45.4073 14.4 45.2073 14.4C45.0073 14.4 44.7406 14.3167 44.4073 14.15C44.1073 13.9833 43.824 13.9 43.5573 13.9C42.7906 13.9 42.1073 14.1833 41.5073 14.75C40.9406 15.3167 40.524 16.0167 40.2573 16.85C40.024 17.55 39.9073 18.3167 39.9073 19.15C39.9073 20.45 40.074 21.8 40.4073 23.2C40.7406 24.5667 41.1906 25.85 41.7573 27.05L43.5073 30.7L44.0073 31.75C44.7073 33.1833 45.2406 34.3667 45.6073 35.3C46.0073 36.2333 46.3406 37.2833 46.6073 38.45C46.974 40.0167 47.1573 41.5167 47.1573 42.95C47.1573 44.8833 46.6573 46.85 45.6573 48.85C45.1573 49.8167 44.4906 50.6 43.6573 51.2C42.824 51.8 41.9073 52.1 40.9073 52.1ZM57.334 51.76C54.214 51.76 52.654 46.8533 52.654 37.04V35.64C52.654 28.2 53.614 24.48 55.534 24.48C55.6673 24.48 55.854 24.52 56.094 24.6C56.9473 24.8933 57.7873 25.08 58.614 25.16C59.1207 25.2667 59.6273 25.7867 60.134 26.72C60.694 27.68 61.1073 28.9467 61.374 30.52C61.6673 32.0933 61.814 33.7067 61.814 35.36L61.734 35.56C61.734 36.44 61.7473 37.2267 61.774 37.92L61.814 40.32C61.814 41.68 61.7607 42.9067 61.654 44C61.494 45.6533 61.2273 47.08 60.854 48.28C60.614 49 60.334 49.6 60.014 50.08C59.7207 50.56 59.3473 50.96 58.894 51.28C58.4673 51.6 57.9473 51.76 57.334 51.76ZM57.174 50.6C58.214 50.6 58.9873 49.8667 59.494 48.4C60.0007 46.9067 60.3073 45.3867 60.414 43.84C60.5207 42.24 60.574 40.96 60.574 40C60.574 38.9333 60.494 37.36 60.334 35.28C60.2007 32.96 60.134 31.3867 60.134 30.56L59.974 30.24L60.054 30.04C60.054 28.8667 59.7207 27.8533 59.054 27C58.414 26.1467 57.6273 25.72 56.694 25.72C55.4673 25.72 54.734 26.3067 54.494 27.48C54.4407 27.88 54.3873 28.4533 54.334 29.2C54.334 31.1733 54.254 32.52 54.094 33.24C54.094 33.64 54.054 34.2667 53.974 35.12L53.894 37C53.894 37.5867 53.9073 38.1067 53.934 38.56L53.974 40.16C53.974 41.4133 54.0807 42.8533 54.294 44.48C54.454 45.68 54.6407 46.6933 54.854 47.52C55.0673 48.3467 55.374 49.0533 55.774 49.64C56.174 50.28 56.6407 50.6 57.174 50.6ZM71.2021 51.6C70.7755 51.6 70.3088 51.4533 69.8021 51.16C69.3221 50.8933 68.9221 50.5733 68.6021 50.2C68.2288 49.72 67.9355 48.3733 67.7221 46.16C67.5088 43.9467 67.3755 41.4133 67.3221 38.56C67.3221 37.92 67.3088 37.44 67.2821 37.12C67.2288 30.4267 67.1221 26.4667 66.9621 25.24L67.2021 24.68C67.8155 24.76 68.1221 25.4933 68.1221 26.88L68.2421 37.48C68.2421 38.2267 68.3088 39.64 68.4421 41.72C68.6021 43.5867 68.6821 45 68.6821 45.96C68.6821 49 69.6821 50.52 71.6821 50.52C72.9088 50.52 73.6955 47.72 74.0421 42.12L74.0821 41.32C74.2688 33.9867 74.3621 28.56 74.3621 25.04L74.3221 24.68C74.2955 24.5733 74.2821 24.4533 74.2821 24.32C74.2821 24.0267 74.5088 23.88 74.9621 23.88C75.2821 23.88 75.4821 23.96 75.5621 24.12C75.6155 24.3867 75.6421 24.8533 75.6421 25.52C75.6421 27.5467 75.5621 28.9067 75.4021 29.6L75.4421 29.84C75.4421 30.1867 75.4021 30.72 75.3221 31.44L75.2421 33.04V33.44C75.2688 33.5467 75.2821 33.68 75.2821 33.84C75.2288 34.48 75.2021 35.0933 75.2021 35.68C75.1755 35.8667 75.1621 36.16 75.1621 36.56C75.1088 39.0933 75.0555 41.2933 75.0021 43.16C74.9221 45.48 74.6021 47.44 74.0421 49.04C73.4555 50.7467 72.5088 51.6 71.2021 51.6ZM82.3706 51.52C81.9972 51.52 81.7706 51.2133 81.6906 50.6C81.7439 50.44 81.7706 50 81.7706 49.28C81.7706 46.8267 81.8106 43.1867 81.8906 38.36C81.9706 33.56 82.0106 30.0933 82.0106 27.96L82.0906 26.52L82.2106 25.32C82.2106 25.1333 82.3039 25.04 82.4906 25.04C82.6239 25.04 82.8106 25.08 83.0506 25.16L83.1706 25.2C83.1706 25.7867 83.1572 26.32 83.1306 26.8V28.36V32.72C83.1572 34 83.1706 35.4533 83.1706 37.08C83.1439 37.2133 83.1306 37.5067 83.1306 37.96L83.0906 38.8C83.0639 39.3333 83.0506 39.88 83.0506 40.44C83.0506 41.0533 83.0639 41.6133 83.0906 42.12L83.1306 43.84L83.0106 44.16L83.0506 44.12C83.0506 44.2 83.0372 44.2533 83.0106 44.28V44.44C83.0106 44.6533 83.0506 44.84 83.1306 45L83.0106 48.84V49.08C83.0106 49.5333 83.0239 49.8 83.0506 49.88C83.0506 50.0133 83.1172 50.08 83.2506 50.08L85.3306 50.16C85.9439 50.16 86.3572 50.1733 86.5706 50.2C86.8106 50.2 86.9572 50.2 87.0106 50.2H87.1306C87.2639 50.2 87.3972 50.28 87.5306 50.44C87.6639 50.5733 87.7306 50.72 87.7306 50.88C87.7306 51.2 87.5172 51.3733 87.0906 51.4C86.6372 51.3733 85.5306 51.36 83.7706 51.36L83.8506 51.4C83.5839 51.4 83.3306 51.4133 83.0906 51.44C82.8772 51.4933 82.6372 51.52 82.3706 51.52ZM96.9815 51.3C96.6482 51.3 96.3982 51.1833 96.2315 50.95C96.0648 50.6833 95.9815 50.3667 95.9815 50V45.55V41.1L95.8815 33.1C95.7815 29.5333 95.7315 26.8667 95.7315 25.1L95.7815 23.65V20.4C95.7815 16.8 95.7482 15 95.6815 15H90.0315C89.7648 15 89.5148 14.9333 89.2815 14.8C89.0815 14.6667 88.9815 14.4833 88.9815 14.25C88.9815 13.9833 89.0315 13.8 89.1315 13.7C89.2315 13.6 89.4982 13.5167 89.9315 13.45C90.3982 13.35 91.0648 13.3 91.9315 13.3H96.9315L102.432 13.25C102.832 13.25 103.098 13.3167 103.232 13.45C103.398 13.5833 103.482 13.8 103.482 14.1C103.482 14.6 103.165 14.85 102.532 14.85H100.282H98.0815L97.6315 14.9L97.6815 17.8V21.7V42V46.15L97.7315 49.85V49.95C97.7315 50.2167 97.7148 50.45 97.6815 50.65C97.6482 50.8167 97.5815 50.95 97.4815 51.05C97.3815 51.2167 97.2148 51.3 96.9815 51.3ZM111.738 51.76C108.618 51.76 107.058 46.8533 107.058 37.04V35.64C107.058 28.2 108.018 24.48 109.938 24.48C110.072 24.48 110.258 24.52 110.498 24.6C111.352 24.8933 112.192 25.08 113.018 25.16C113.525 25.2667 114.032 25.7867 114.538 26.72C115.098 27.68 115.512 28.9467 115.778 30.52C116.072 32.0933 116.218 33.7067 116.218 35.36L116.138 35.56C116.138 36.44 116.152 37.2267 116.178 37.92L116.218 40.32C116.218 41.68 116.165 42.9067 116.058 44C115.898 45.6533 115.632 47.08 115.258 48.28C115.018 49 114.738 49.6 114.418 50.08C114.125 50.56 113.752 50.96 113.298 51.28C112.872 51.6 112.352 51.76 111.738 51.76ZM111.578 50.6C112.618 50.6 113.392 49.8667 113.898 48.4C114.405 46.9067 114.712 45.3867 114.818 43.84C114.925 42.24 114.978 40.96 114.978 40C114.978 38.9333 114.898 37.36 114.738 35.28C114.605 32.96 114.538 31.3867 114.538 30.56L114.378 30.24L114.458 30.04C114.458 28.8667 114.125 27.8533 113.458 27C112.818 26.1467 112.032 25.72 111.098 25.72C109.872 25.72 109.138 26.3067 108.898 27.48C108.845 27.88 108.792 28.4533 108.738 29.2C108.738 31.1733 108.658 32.52 108.498 33.24C108.498 33.64 108.458 34.2667 108.378 35.12L108.298 37C108.298 37.5867 108.312 38.1067 108.338 38.56L108.378 40.16C108.378 41.4133 108.485 42.8533 108.698 44.48C108.858 45.68 109.045 46.6933 109.258 47.52C109.472 48.3467 109.778 49.0533 110.178 49.64C110.578 50.28 111.045 50.6 111.578 50.6ZM125.606 51.6C125.18 51.6 124.713 51.4533 124.206 51.16C123.726 50.8933 123.326 50.5733 123.006 50.2C122.633 49.72 122.34 48.3733 122.126 46.16C121.913 43.9467 121.78 41.4133 121.726 38.56C121.726 37.92 121.713 37.44 121.686 37.12C121.633 30.4267 121.526 26.4667 121.366 25.24L121.606 24.68C122.22 24.76 122.526 25.4933 122.526 26.88L122.646 37.48C122.646 38.2267 122.713 39.64 122.846 41.72C123.006 43.5867 123.086 45 123.086 45.96C123.086 49 124.086 50.52 126.086 50.52C127.313 50.52 128.1 47.72 128.446 42.12L128.486 41.32C128.673 33.9867 128.766 28.56 128.766 25.04L128.726 24.68C128.7 24.5733 128.686 24.4533 128.686 24.32C128.686 24.0267 128.913 23.88 129.366 23.88C129.686 23.88 129.886 23.96 129.966 24.12C130.02 24.3867 130.046 24.8533 130.046 25.52C130.046 27.5467 129.966 28.9067 129.806 29.6L129.846 29.84C129.846 30.1867 129.806 30.72 129.726 31.44L129.646 33.04V33.44C129.673 33.5467 129.686 33.68 129.686 33.84C129.633 34.48 129.606 35.0933 129.606 35.68C129.58 35.8667 129.566 36.16 129.566 36.56C129.513 39.0933 129.46 41.2933 129.406 43.16C129.326 45.48 129.006 47.44 128.446 49.04C127.86 50.7467 126.913 51.6 125.606 51.6ZM142.175 51.48C141.855 51.1333 141.508 50.2133 141.135 48.72C140.762 47.2267 140.415 45.5467 140.095 43.68C139.882 42.16 139.575 40.6533 139.175 39.16C138.855 37.8267 138.548 37.16 138.255 37.16H138.135C137.548 37.16 137.255 37.3467 137.255 37.72C137.255 39.64 137.362 42.56 137.575 46.48C137.682 48.88 137.802 50.28 137.935 50.68L137.615 51.36H137.055L136.735 51.04C136.308 38.72 136.095 30.32 136.095 25.84C136.095 25.5467 136.108 25.3067 136.135 25.12C136.188 24.9333 136.282 24.76 136.415 24.6C136.522 24.4133 136.708 24.32 136.975 24.32C138.335 24.32 139.428 24.6533 140.255 25.32C141.082 25.9867 141.495 26.9467 141.495 28.2V31.12C141.495 31.6267 141.322 32.3067 140.975 33.16C140.655 34.0133 140.295 34.8 139.895 35.52L139.375 36.52C139.668 37.88 140.242 40.3333 141.095 43.88C141.975 47.4 142.455 49.2667 142.535 49.48C142.562 49.5067 142.588 49.5733 142.615 49.68C142.668 49.7867 142.762 49.9467 142.895 50.16C143.082 50.5333 143.175 50.8533 143.175 51.12C143.175 51.4933 143.028 51.68 142.735 51.68L142.175 51.48ZM137.455 36.16C137.962 36.16 138.415 35.9067 138.815 35.4C139.215 34.8933 139.535 34.24 139.775 33.44C140.202 31.8133 140.415 30.52 140.415 29.56C140.415 28.9467 140.375 28.44 140.295 28.04C140.242 27.64 140.135 27.2133 139.975 26.76C139.655 25.8267 138.895 25.36 137.695 25.36C137.562 25.36 137.455 25.48 137.375 25.72C137.295 25.9333 137.255 26.16 137.255 26.4C137.255 28.1867 137.282 29.8 137.335 31.24C137.362 32.68 137.375 34.2933 137.375 36.08L137.455 36.16Z" fill="white"/>
<g clip-path="url(#clip0)">
<path d="M14.2187 40.0274C14.0858 40.0605 13.8627 40.1433 13.7202 40.2179C13.5778 40.2841 13.3642 40.3918 13.2503 40.4415C13.0461 40.5326 13.0461 40.5408 13.0699 40.839C13.0841 41.0046 13.3547 43.2324 13.6728 45.7832C13.9861 48.334 14.3279 51.0919 14.4276 51.9118C14.5415 52.8311 14.5938 53.4191 14.5653 53.4522C14.5415 53.4771 14.2614 53.5433 13.9434 53.593C13.6253 53.651 11.8925 53.9491 10.0885 54.2721C8.28929 54.5951 6.23844 54.9512 5.53109 55.0754C4.82848 55.1914 4.23032 55.3156 4.21133 55.3487C4.15911 55.4233 4.4392 55.8871 4.69556 56.1521L4.90919 56.3674L6.30965 56.3094C7.08347 56.2846 8.32252 56.2183 9.06785 56.1686C13.0746 55.9119 15.1207 55.7877 15.1302 55.796C15.135 55.8042 15.3201 56.9637 15.5432 58.3716L15.9467 60.939L16.317 61.5518C16.8203 62.38 19.2414 66.0157 19.6402 66.5375C20.0722 67.1006 21.0644 68.1276 21.9996 68.9806C22.4221 69.3616 22.7497 69.6763 22.7259 69.6763C22.707 69.6763 21.1926 69.8833 19.3553 70.1318C17.5229 70.3803 15.4673 70.6618 14.7884 70.7529C9.53309 71.4569 6.10552 71.929 5.6023 71.9952C5.27473 72.0366 3.898 72.2271 2.54501 72.4093C1.18728 72.5915 0.066904 72.7571 0.0574093 72.782C0.00518864 72.8731 1.3297 74.8773 1.80443 75.4239C2.50229 76.2272 2.54501 76.2438 3.85528 76.1361C5.39342 76.0119 10.4066 75.6806 17.5656 75.2251C22.669 74.9021 26.0681 74.6785 29.1776 74.4798L31.6984 74.3141L31.9785 74.4798C34.8601 76.2189 37.3193 77.0471 39.617 77.0471C42.3087 77.0471 44.6491 76.5171 46.3677 75.515C46.9658 75.1671 47.996 74.3638 47.996 74.2479C47.996 74.2147 47.7966 74.1733 47.5593 74.165C46.7475 74.1154 46.1351 73.8089 45.779 73.2872C45.5511 72.9476 45.4182 72.2602 45.4419 71.5314C45.4847 70.3223 45.8645 69.461 46.6335 68.8067C47.64 67.962 48.8933 67.7466 49.5911 68.3015C50.0943 68.7073 50.5263 69.7343 50.5881 70.6784C50.6118 71.0511 50.5928 71.1919 50.4979 71.5231C50.4361 71.7385 50.3982 71.9124 50.4219 71.9124C50.4931 71.9124 50.8587 71.0345 51.0201 70.4631C51.172 69.9496 51.1862 69.8419 51.1625 69.4196C51.0675 67.5561 49.4962 65.3946 46.7142 63.291C46.0021 62.7527 44.5352 61.7754 43.8041 61.3531L43.3864 61.1046L42.9591 60.1688C41.8814 57.8167 40.5997 55.9864 39.4176 55.1003C38.4206 54.3632 37.7323 54.2059 36.2796 54.3963C33.9961 54.6945 32.1826 55.0506 28.5319 55.9368C25.5554 56.6573 24.2831 56.8974 22.7592 57.0217C21.6008 57.1128 21.5581 57.1128 21.3824 56.9471C20.6846 56.326 18.8521 51.1995 15.999 41.8659L15.4055 39.9446L14.9308 39.9528C14.6697 39.9611 14.3469 39.9942 14.2187 40.0274ZM39.2894 56.1852C39.4935 56.2349 39.7689 56.3426 39.9066 56.4337C40.2721 56.6738 40.7943 57.3529 41.307 58.2557C41.7723 59.0838 42.7122 61.0384 42.6695 61.1046C42.66 61.1295 42.3847 61.1791 42.0571 61.2288C40.6614 61.4359 39.2562 61.7506 38.696 61.9908C37.6231 62.438 35.8998 63.4981 34.8934 64.3262C34.7509 64.4422 34.6085 64.5416 34.58 64.5416C34.5516 64.5416 34.5136 64.3428 34.4993 64.1026C34.4851 63.8707 34.3759 62.3138 34.2525 60.6574C34.1338 59.001 34.0483 57.618 34.0721 57.5848C34.1385 57.4855 35.2114 56.9389 35.8713 56.6821C37.1911 56.1604 38.4396 55.9782 39.2894 56.1852ZM32.6052 58.0155C32.5909 58.0735 32.3203 59.4979 31.9975 61.1874C31.6794 62.8686 31.4088 64.26 31.4041 64.2765C31.3898 64.3014 29.3247 63.7962 29.3058 63.7631C29.2868 63.7299 29.9941 58.5952 30.0273 58.4958C30.0416 58.4544 30.127 58.413 30.2077 58.4047C30.2932 58.4047 30.7964 58.2971 31.3329 58.1728C32.4817 57.8913 32.6336 57.8747 32.6052 58.0155ZM33.5973 61.4939C33.7018 63.3738 33.7825 64.9391 33.773 64.9639C33.7588 65.0053 32.3725 64.6492 32.344 64.5913C32.3251 64.5581 33.3505 58.0817 33.3742 58.0817C33.3885 58.0817 33.4882 59.6222 33.5973 61.4939Z" fill="white"/>
<path d="M27.7245 52.0939C27.6058 52.1105 26.0155 52.2679 24.1877 52.4501C22.36 52.6323 20.6605 52.8145 20.4089 52.8476L19.9484 52.9056L20.3234 53.8166L20.7032 54.7358L22.0894 54.4625C25.2606 53.8414 29.1772 52.9304 29.2531 52.7979C29.2959 52.7234 29.2531 52.6571 29.0965 52.5412C28.8354 52.3424 28.166 52.0277 28.0378 52.0525C27.9808 52.0608 27.8432 52.0774 27.7245 52.0939Z" fill="white"/>
<path d="M51.0482 58.6863C48.1998 60.5166 45.8736 62.0322 45.8831 62.0404C45.8926 62.057 46.2059 62.2889 46.5809 62.5456C48.3944 63.821 48.9689 64.3759 50.0702 65.8998L50.6447 66.6948L53.0088 64.3511C54.3143 63.0591 56.5408 60.8727 57.965 59.4896C59.3892 58.1149 60.5998 56.9057 60.6615 56.8146C60.7185 56.7235 60.766 56.5993 60.766 56.533C60.766 56.2514 60.1773 55.9616 59.1281 55.7214C58.511 55.5889 56.7925 55.3487 56.4459 55.3487C56.2845 55.357 54.9647 56.1686 51.0482 58.6863Z" fill="white"/>
<path d="M47.7583 69.6845C47.2551 69.8418 46.8183 70.3222 46.6426 70.9185C46.6047 71.051 46.5477 71.4237 46.5145 71.7467C46.4622 72.2933 46.4622 72.3678 46.5477 72.6411C46.5999 72.8067 46.7139 73.0304 46.8041 73.1297C47.1838 73.577 48.1523 73.8585 49.1445 73.8006C49.6382 73.7757 49.7617 73.7426 49.9563 73.577C50.2696 73.3119 50.3408 73.0469 50.3124 72.2519C50.2696 71.0427 49.9231 70.2062 49.3107 69.8418C48.9689 69.6348 48.1713 69.552 47.7583 69.6845Z" fill="white"/>
</g>
<defs>
<clipPath id="clip0">
<rect width="60.766" height="51.8298" fill="white" transform="translate(0 32.1702)"/>
</clipPath>
</defs>
</svg>
