<svg width="165" height="94" viewBox="0 0 165 94" fill="none" xmlns="http://www.w3.org/2000/svg">
<path d="M45.6677 57.21C45.0077 57.21 44.4943 57.1733 44.1277 57.1C43.7977 57.0633 43.431 56.9533 43.0277 56.77C42.5877 56.55 42.2577 56.2383 42.0377 55.835C42.0377 55.395 42.2393 55.175 42.6427 55.175C43.046 55.175 43.5593 55.3033 44.1827 55.56C44.7693 55.8533 45.2643 56 45.6677 56C46.4743 56 47.2077 55.67 47.8677 55.01C48.5643 54.35 49.096 53.4883 49.4627 52.425C50.196 50.335 50.5627 48.4833 50.5627 46.87C50.5627 45.0733 50.306 43.2583 49.7927 41.425C49.2793 39.5917 48.601 37.8683 47.7577 36.255C47.5743 35.8517 47.2627 35.2467 46.8227 34.44C45.906 32.6067 45.2093 31.1767 44.7327 30.15C44.256 29.1233 43.8343 27.9867 43.4677 26.74C42.9543 25.09 42.6977 23.3117 42.6977 21.405C42.6977 20.195 42.881 19.04 43.2477 17.94C43.651 16.8033 44.2743 15.8317 45.1177 15.025C46.0343 14.1817 47.061 13.76 48.1977 13.76C48.6377 13.76 49.1693 13.9433 49.7927 14.31C50.416 14.64 50.7277 14.97 50.7277 15.3C50.7277 15.5933 50.6177 15.74 50.3977 15.74C50.1777 15.74 49.8843 15.6483 49.5177 15.465C49.1877 15.2817 48.876 15.19 48.5827 15.19C47.7393 15.19 46.9877 15.5017 46.3277 16.125C45.7043 16.7483 45.246 17.5183 44.9527 18.435C44.696 19.205 44.5677 20.0483 44.5677 20.965C44.5677 22.395 44.751 23.88 45.1177 25.42C45.4843 26.9233 45.9793 28.335 46.6027 29.655L48.5277 33.67L49.0777 34.825C49.8477 36.4017 50.4343 37.7033 50.8377 38.73C51.2777 39.7567 51.6443 40.9117 51.9377 42.195C52.341 43.9183 52.5427 45.5683 52.5427 47.145C52.5427 49.2717 51.9927 51.435 50.8927 53.635C50.3427 54.6983 49.6093 55.56 48.6927 56.22C47.776 56.88 46.7677 57.21 45.6677 57.21ZM63.561 56.817C60.207 56.817 58.53 51.5423 58.53 40.993V39.488C58.53 31.49 59.562 27.491 61.626 27.491C61.7694 27.491 61.97 27.534 62.228 27.62C63.1454 27.9353 64.0484 28.136 64.937 28.222C65.4817 28.3367 66.0264 28.8957 66.571 29.899C67.173 30.931 67.6174 32.2927 67.904 33.984C68.2194 35.6753 68.377 37.4097 68.377 39.187L68.291 39.402C68.291 40.348 68.3054 41.1937 68.334 41.939L68.377 44.519C68.377 45.981 68.3197 47.2997 68.205 48.475C68.033 50.2523 67.7464 51.786 67.345 53.076C67.087 53.85 66.786 54.495 66.442 55.011C66.1267 55.527 65.7254 55.957 65.238 56.301C64.7794 56.645 64.2204 56.817 63.561 56.817ZM63.389 55.57C64.507 55.57 65.3384 54.7817 65.883 53.205C66.4277 51.5997 66.7574 49.9657 66.872 48.303C66.9867 46.583 67.044 45.207 67.044 44.175C67.044 43.0283 66.958 41.337 66.786 39.101C66.6427 36.607 66.571 34.9157 66.571 34.027L66.399 33.683L66.485 33.468C66.485 32.2067 66.1267 31.1173 65.41 30.2C64.722 29.2827 63.8764 28.824 62.873 28.824C61.5544 28.824 60.766 29.4547 60.508 30.716C60.4507 31.146 60.3934 31.7623 60.336 32.565C60.336 34.6863 60.25 36.134 60.078 36.908C60.078 37.338 60.035 38.0117 59.949 38.929L59.863 40.95C59.863 41.5807 59.8774 42.1397 59.906 42.627L59.949 44.347C59.949 45.6943 60.0637 47.2423 60.293 48.991C60.465 50.281 60.6657 51.3703 60.895 52.259C61.1244 53.1477 61.454 53.9073 61.884 54.538C62.314 55.226 62.8157 55.57 63.389 55.57ZM78.4693 56.645C78.0106 56.645 77.5089 56.4873 76.9643 56.172C76.4483 55.8853 76.0183 55.5413 75.6743 55.14C75.2729 54.624 74.9576 53.1763 74.7283 50.797C74.4989 48.4177 74.3556 45.6943 74.2983 42.627C74.2983 41.939 74.2839 41.423 74.2553 41.079C74.1979 33.8837 74.0833 29.6267 73.9113 28.308L74.1693 27.706C74.8286 27.792 75.1583 28.5803 75.1583 30.071L75.2873 41.466C75.2873 42.2687 75.3589 43.788 75.5023 46.024C75.6743 48.0307 75.7603 49.55 75.7603 50.582C75.7603 53.85 76.8353 55.484 78.9853 55.484C80.3039 55.484 81.1496 52.474 81.5223 46.454L81.5653 45.594C81.7659 37.7107 81.8663 31.877 81.8663 28.093L81.8233 27.706C81.7946 27.5913 81.7803 27.4623 81.7803 27.319C81.7803 27.0037 82.0239 26.846 82.5113 26.846C82.8553 26.846 83.0703 26.932 83.1563 27.104C83.2136 27.3907 83.2423 27.8923 83.2423 28.609C83.2423 30.7877 83.1563 32.2497 82.9843 32.995L83.0273 33.253C83.0273 33.6257 82.9843 34.199 82.8983 34.973L82.8123 36.693V37.123C82.8409 37.2377 82.8553 37.381 82.8553 37.553C82.7979 38.241 82.7693 38.9003 82.7693 39.531C82.7406 39.7317 82.7263 40.047 82.7263 40.477C82.6689 43.2003 82.6116 45.5653 82.5543 47.572C82.4683 50.066 82.1243 52.173 81.5223 53.893C80.8916 55.7277 79.8739 56.645 78.4693 56.645ZM90.4753 56.559C90.074 56.559 89.8303 56.2293 89.7443 55.57C89.8017 55.398 89.8303 54.925 89.8303 54.151C89.8303 51.5137 89.8733 47.6007 89.9593 42.412C90.0453 37.252 90.0883 33.5253 90.0883 31.232L90.1743 29.684L90.3033 28.394C90.3033 28.1933 90.4037 28.093 90.6043 28.093C90.7477 28.093 90.9483 28.136 91.2063 28.222L91.3353 28.265C91.3353 28.8957 91.321 29.469 91.2923 29.985V31.662V36.349C91.321 37.725 91.3353 39.2873 91.3353 41.036C91.3067 41.1793 91.2923 41.4947 91.2923 41.982L91.2493 42.885C91.2207 43.4583 91.2063 44.046 91.2063 44.648C91.2063 45.3073 91.2207 45.9093 91.2493 46.454L91.2923 48.303L91.1633 48.647L91.2063 48.604C91.2063 48.69 91.192 48.7473 91.1633 48.776V48.948C91.1633 49.1773 91.2063 49.378 91.2923 49.55L91.1633 53.678V53.936C91.1633 54.4233 91.1777 54.71 91.2063 54.796C91.2063 54.9393 91.278 55.011 91.4213 55.011L93.6573 55.097C94.3167 55.097 94.761 55.1113 94.9903 55.14C95.2483 55.14 95.406 55.14 95.4633 55.14H95.5923C95.7357 55.14 95.879 55.226 96.0223 55.398C96.1657 55.5413 96.2373 55.699 96.2373 55.871C96.2373 56.215 96.008 56.4013 95.5493 56.43C95.062 56.4013 93.8723 56.387 91.9803 56.387L92.0663 56.43C91.7797 56.43 91.5073 56.4443 91.2493 56.473C91.02 56.5303 90.762 56.559 90.4753 56.559ZM106.388 56.33C106.022 56.33 105.747 56.2017 105.563 55.945C105.38 55.6517 105.288 55.3033 105.288 54.9V50.005V45.11L105.178 36.31C105.068 32.3867 105.013 29.4533 105.013 27.51L105.068 25.915V22.34C105.068 18.38 105.032 16.4 104.958 16.4H98.7434C98.45 16.4 98.175 16.3267 97.9184 16.18C97.6984 16.0333 97.5884 15.8317 97.5884 15.575C97.5884 15.2817 97.6434 15.08 97.7534 14.97C97.8634 14.86 98.1567 14.7683 98.6334 14.695C99.1467 14.585 99.88 14.53 100.833 14.53H106.333L112.383 14.475C112.823 14.475 113.117 14.5483 113.263 14.695C113.447 14.8417 113.538 15.08 113.538 15.41C113.538 15.96 113.19 16.235 112.493 16.235H110.018H107.598L107.103 16.29L107.158 19.48V23.77V46.1V50.665L107.213 54.735V54.845C107.213 55.1383 107.195 55.395 107.158 55.615C107.122 55.7983 107.048 55.945 106.938 56.055C106.828 56.2383 106.645 56.33 106.388 56.33ZM122.445 56.817C119.091 56.817 117.414 51.5423 117.414 40.993V39.488C117.414 31.49 118.446 27.491 120.51 27.491C120.653 27.491 120.854 27.534 121.112 27.62C122.029 27.9353 122.932 28.136 123.821 28.222C124.365 28.3367 124.91 28.8957 125.455 29.899C126.057 30.931 126.501 32.2927 126.788 33.984C127.103 35.6753 127.261 37.4097 127.261 39.187L127.175 39.402C127.175 40.348 127.189 41.1937 127.218 41.939L127.261 44.519C127.261 45.981 127.203 47.2997 127.089 48.475C126.917 50.2523 126.63 51.786 126.229 53.076C125.971 53.85 125.67 54.495 125.326 55.011C125.01 55.527 124.609 55.957 124.122 56.301C123.663 56.645 123.104 56.817 122.445 56.817ZM122.273 55.57C123.391 55.57 124.222 54.7817 124.767 53.205C125.311 51.5997 125.641 49.9657 125.756 48.303C125.87 46.583 125.928 45.207 125.928 44.175C125.928 43.0283 125.842 41.337 125.67 39.101C125.526 36.607 125.455 34.9157 125.455 34.027L125.283 33.683L125.369 33.468C125.369 32.2067 125.01 31.1173 124.294 30.2C123.606 29.2827 122.76 28.824 121.757 28.824C120.438 28.824 119.65 29.4547 119.392 30.716C119.334 31.146 119.277 31.7623 119.22 32.565C119.22 34.6863 119.134 36.134 118.962 36.908C118.962 37.338 118.919 38.0117 118.833 38.929L118.747 40.95C118.747 41.5807 118.761 42.1397 118.79 42.627L118.833 44.347C118.833 45.6943 118.947 47.2423 119.177 48.991C119.349 50.281 119.549 51.3703 119.779 52.259C120.008 53.1477 120.338 53.9073 120.768 54.538C121.198 55.226 121.699 55.57 122.273 55.57ZM137.353 56.645C136.894 56.645 136.393 56.4873 135.848 56.172C135.332 55.8853 134.902 55.5413 134.558 55.14C134.157 54.624 133.841 53.1763 133.612 50.797C133.383 48.4177 133.239 45.6943 133.182 42.627C133.182 41.939 133.168 41.423 133.139 41.079C133.082 33.8837 132.967 29.6267 132.795 28.308L133.053 27.706C133.712 27.792 134.042 28.5803 134.042 30.071L134.171 41.466C134.171 42.2687 134.243 43.788 134.386 46.024C134.558 48.0307 134.644 49.55 134.644 50.582C134.644 53.85 135.719 55.484 137.869 55.484C139.188 55.484 140.033 52.474 140.406 46.454L140.449 45.594C140.65 37.7107 140.75 31.877 140.75 28.093L140.707 27.706C140.678 27.5913 140.664 27.4623 140.664 27.319C140.664 27.0037 140.908 26.846 141.395 26.846C141.739 26.846 141.954 26.932 142.04 27.104C142.097 27.3907 142.126 27.8923 142.126 28.609C142.126 30.7877 142.04 32.2497 141.868 32.995L141.911 33.253C141.911 33.6257 141.868 34.199 141.782 34.973L141.696 36.693V37.123C141.725 37.2377 141.739 37.381 141.739 37.553C141.682 38.241 141.653 38.9003 141.653 39.531C141.624 39.7317 141.61 40.047 141.61 40.477C141.553 43.2003 141.495 45.5653 141.438 47.572C141.352 50.066 141.008 52.173 140.406 53.893C139.775 55.7277 138.758 56.645 137.353 56.645ZM155.164 56.516C154.82 56.1433 154.447 55.1543 154.046 53.549C153.645 51.9437 153.272 50.1377 152.928 48.131C152.699 46.497 152.369 44.8773 151.939 43.272C151.595 41.8387 151.265 41.122 150.95 41.122H150.821C150.19 41.122 149.875 41.3227 149.875 41.724C149.875 43.788 149.99 46.927 150.219 51.141C150.334 53.721 150.463 55.226 150.606 55.656L150.262 56.387H149.66L149.316 56.043C148.857 42.799 148.628 33.769 148.628 28.953C148.628 28.6377 148.642 28.3797 148.671 28.179C148.728 27.9783 148.829 27.792 148.972 27.62C149.087 27.4193 149.287 27.319 149.574 27.319C151.036 27.319 152.211 27.6773 153.1 28.394C153.989 29.1107 154.433 30.1427 154.433 31.49V34.629C154.433 35.1737 154.247 35.9047 153.874 36.822C153.53 37.7393 153.143 38.585 152.713 39.359L152.154 40.434C152.469 41.896 153.086 44.5333 154.003 48.346C154.949 52.13 155.465 54.1367 155.551 54.366C155.58 54.3947 155.608 54.4663 155.637 54.581C155.694 54.6957 155.795 54.8677 155.938 55.097C156.139 55.4983 156.239 55.8423 156.239 56.129C156.239 56.5303 156.081 56.731 155.766 56.731L155.164 56.516ZM150.09 40.047C150.635 40.047 151.122 39.7747 151.552 39.23C151.982 38.6853 152.326 37.983 152.584 37.123C153.043 35.3743 153.272 33.984 153.272 32.952C153.272 32.2927 153.229 31.748 153.143 31.318C153.086 30.888 152.971 30.4293 152.799 29.942C152.455 28.9387 151.638 28.437 150.348 28.437C150.205 28.437 150.09 28.566 150.004 28.824C149.918 29.0533 149.875 29.297 149.875 29.555C149.875 31.4757 149.904 33.21 149.961 34.758C149.99 36.306 150.004 38.0403 150.004 39.961L150.09 40.047Z" fill="#263128"/>
<g clip-path="url(#clip0)">
<path d="M15.9114 44.7926C15.7626 44.8297 15.5129 44.9224 15.3535 45.0058C15.1942 45.0799 14.9551 45.2004 14.8276 45.256C14.5992 45.3579 14.5992 45.3672 14.6257 45.7009C14.6417 45.8862 14.9445 48.3792 15.3004 51.2337C15.651 54.0882 16.0335 57.1743 16.1451 58.0918C16.2726 59.1206 16.331 59.7786 16.2992 59.8156C16.2726 59.8434 15.9592 59.9176 15.6032 59.9732C15.2473 60.0381 13.3082 60.3717 11.2895 60.7332C9.27605 61.0946 6.98105 61.4931 6.18949 61.6321C5.40324 61.7619 4.73386 61.9009 4.71261 61.938C4.65418 62.0214 4.96761 62.5404 5.25449 62.8369L5.49355 63.0779L7.06074 63.013C7.92667 62.9852 9.31323 62.9111 10.1473 62.8555C14.631 62.5682 16.9207 62.4292 16.9314 62.4384C16.9367 62.4477 17.1439 63.7452 17.3935 65.3207L17.8451 68.1937L18.2595 68.8795C18.8226 69.8063 21.532 73.8748 21.9782 74.4587C22.4617 75.0889 23.572 76.2381 24.6185 77.1927C25.0913 77.619 25.4579 77.9712 25.4313 77.9712C25.4101 77.9712 23.7154 78.2029 21.6595 78.4809C19.6089 78.7589 17.3085 79.074 16.5489 79.176C10.6679 79.9637 6.8323 80.492 6.26917 80.5662C5.90261 80.6125 4.36199 80.8256 2.84793 81.0295C1.32855 81.2334 0.0748048 81.4188 0.0641798 81.4466C0.0057424 81.5485 1.48793 83.7913 2.01918 84.403C2.80011 85.302 2.84793 85.3205 4.31418 85.2C6.03542 85.061 11.6454 84.6903 19.6567 84.1806C25.3676 83.8191 29.1713 83.5689 32.651 83.3465L35.472 83.1611L35.7854 83.3465C39.0101 85.2927 41.762 86.2195 44.3332 86.2195C47.3454 86.2195 49.9645 85.6263 51.8876 84.5049C52.5569 84.1157 53.7098 83.2167 53.7098 83.087C53.7098 83.0499 53.4866 83.0036 53.221 82.9943C52.3126 82.9387 51.6273 82.5958 51.2288 82.0119C50.9738 81.6319 50.8251 80.8627 50.8516 80.0472C50.8994 78.6941 51.3244 77.7302 52.1851 76.9981C53.3113 76.0528 54.7138 75.8118 55.4948 76.4327C56.0579 76.8869 56.5413 78.0361 56.6104 79.0926C56.6369 79.5096 56.6157 79.6672 56.5094 80.0379C56.4404 80.2789 56.3979 80.4735 56.4244 80.4735C56.5041 80.4735 56.9132 79.4911 57.0938 78.8516C57.2638 78.277 57.2798 78.1565 57.2532 77.6839C57.1469 75.5986 55.3885 73.1798 52.2754 70.8257C51.4785 70.2233 49.837 69.1297 49.0188 68.6571L48.5513 68.3791L48.0732 67.3318C46.8673 64.6998 45.4329 62.6516 44.1101 61.6599C42.9945 60.8351 42.2241 60.659 40.5985 60.8722C38.0432 61.2058 36.0138 61.6043 31.9285 62.596C28.5976 63.4023 27.1738 63.671 25.4685 63.81C24.1723 63.912 24.1245 63.912 23.9279 63.7266C23.147 63.0316 21.0963 57.2948 17.9035 46.8501L17.2395 44.6999L16.7082 44.7092C16.416 44.7185 16.0548 44.7555 15.9114 44.7926ZM43.9666 62.874C44.1951 62.9296 44.5032 63.0501 44.6573 63.152C45.0663 63.4208 45.6507 64.1808 46.2245 65.1909C46.7451 66.1177 47.797 68.3049 47.7491 68.3791C47.7385 68.4069 47.4304 68.4625 47.0638 68.5181C45.502 68.7498 43.9295 69.1019 43.3026 69.3707C42.102 69.8712 40.1735 71.0574 39.0473 71.9842C38.8879 72.114 38.7285 72.2252 38.6966 72.2252C38.6648 72.2252 38.6223 72.0027 38.6063 71.734C38.5904 71.4745 38.4682 69.7321 38.3301 67.8786C38.1973 66.025 38.1016 64.4773 38.1282 64.4403C38.2026 64.329 39.4032 63.7174 40.1416 63.4301C41.6185 62.8462 43.0157 62.6423 43.9666 62.874ZM36.4866 64.9222C36.4707 64.9871 36.1679 66.5811 35.8066 68.4717C35.4507 70.3531 35.1479 71.9101 35.1426 71.9286C35.1267 71.9564 32.8157 71.3911 32.7945 71.354C32.7732 71.3169 33.5648 65.5709 33.602 65.4597C33.6179 65.4134 33.7135 65.367 33.8038 65.3578C33.8995 65.3578 34.4626 65.2373 35.0629 65.0983C36.3485 64.7832 36.5185 64.7646 36.4866 64.9222ZM37.597 68.8146C37.7138 70.9184 37.8041 72.67 37.7935 72.6978C37.7776 72.7442 36.2263 72.3457 36.1945 72.2808C36.1732 72.2437 37.3207 64.9963 37.3473 64.9963C37.3632 64.9963 37.4748 66.7201 37.597 68.8146Z" fill="black"/>
<path d="M31.025 58.2958C30.8922 58.3143 29.1125 58.4904 27.0672 58.6943C25.0219 58.8982 23.12 59.1021 22.8384 59.1392L22.3231 59.204L22.7428 60.2235L23.1678 61.2522L24.7191 60.9464C28.2678 60.2513 32.6506 59.2318 32.7356 59.0835C32.7834 59.0001 32.7356 58.926 32.5603 58.7962C32.2681 58.5738 31.519 58.2216 31.3756 58.2494C31.3118 58.2587 31.1578 58.2773 31.025 58.2958Z" fill="black"/>
<path d="M57.1254 65.6728C53.9379 67.721 51.3347 69.417 51.3454 69.4263C51.356 69.4448 51.7066 69.7043 52.1263 69.9916C54.1557 71.4189 54.7985 72.0398 56.031 73.7451L56.6738 74.6348L59.3194 72.012C60.7804 70.5662 63.2719 68.1195 64.8657 66.5718C66.4594 65.0334 67.8141 63.6803 67.8832 63.5783C67.9469 63.4764 68 63.3374 68 63.2632C68 62.9481 67.3413 62.6238 66.1672 62.355C65.4766 62.2067 63.5535 61.9379 63.1657 61.9379C62.985 61.9472 61.5082 62.8554 57.1254 65.6728Z" fill="black"/>
<path d="M53.4437 77.9802C52.8806 78.1563 52.3919 78.6938 52.1953 79.3611C52.1528 79.5094 52.0891 79.9264 52.0519 80.2879C51.9934 80.8996 51.9934 80.983 52.0891 81.2888C52.1475 81.4742 52.275 81.7244 52.3759 81.8356C52.8009 82.3361 53.8847 82.6512 54.995 82.5863C55.5475 82.5585 55.6856 82.5214 55.9034 82.3361C56.2541 82.0395 56.3338 81.7429 56.3019 80.8532C56.2541 79.5001 55.8663 78.5641 55.1809 78.1563C54.7984 77.9246 53.9059 77.8319 53.4437 77.9802Z" fill="black"/>
</g>
<defs>
<clipPath id="clip0">
<rect width="68" height="58" fill="white" transform="translate(0 36)"/>
</clipPath>
</defs>
</svg>
