<svg height="512" viewBox="0 0 128 128" width="512" xmlns="http://www.w3.org/2000/svg"><g id="icon"><path d="m64 42.077h4.416v75.768h-4.416z" fill="#a67f74"/><path d="m68.416 118.845h-4.416a1 1 0 0 1 -1-1v-75.768a1 1 0 0 1 1-1h4.416a1 1 0 0 1 1 1v75.768a1 1 0 0 1 -1 1zm-3.416-2h2.416v-73.768h-2.416z" fill="#2f3a5a"/><path d="m65.68 8.208a50.6 50.6 0 0 0 -49.257 39.083h98.514a50.6 50.6 0 0 0 -49.257-39.083z" fill="#dbe2eb"/><path d="m114.938 48.291h-98.515a1 1 0 0 1 -.974-1.227 51.581 51.581 0 0 1 100.462 0 1 1 0 0 1 -.973 1.227zm-97.24-2h95.964a49.584 49.584 0 0 0 -95.964 0z" fill="#2f3a5a"/><path d="m55.33 44.018c4.46 0 8.941.123 13.4-.055 3.29-.132 6.347-.4 9.378 1.093 1.044.512 2.583 1.373 2.523 2.235h19.269c-3.621-22.391-17.562-39.083-34.22-39.083s-30.599 16.692-34.218 39.083h20.326c.412-1.491 1.557-3.273 3.542-3.273z" fill="#ef5361"/><path d="m99.9 48.291h-19.272a1 1 0 0 1 -1-1.066 6.083 6.083 0 0 0 -1.965-1.271c-2.574-1.264-5.163-1.154-8.163-1.023l-.735.031c-3.189.127-6.428.1-9.563.077-1.292-.011-2.584-.021-3.874-.021-1.787 0-2.461 2.115-2.578 2.539a1 1 0 0 1 -.964.734h-20.324a1 1 0 0 1 -.987-1.16c3.798-23.506 18.276-39.923 35.205-39.923s31.406 16.417 35.206 39.923a1 1 0 0 1 -.988 1.16zm-18.535-2h17.349c-3.914-21.891-17.383-37.083-33.034-37.083s-29.119 15.192-33.034 37.083h18.427a4.733 4.733 0 0 1 4.257-3.273c1.3 0 2.593.01 3.891.021 3.107.025 6.325.05 9.466-.075l.729-.031c3.134-.136 6.1-.264 9.13 1.226a6.621 6.621 0 0 1 2.817 2.132z" fill="#2f3a5a"/><path d="m66.208 8.208c-7.02 0-12.895 16.69-14.42 39.083h28.84c-1.528-22.391-7.4-39.083-14.42-39.083z" fill="#dbe2eb"/><path d="m80.628 48.291h-28.84a1 1 0 0 1 -1-1.068c1.884-27.642 9.1-40.015 15.418-40.015s13.536 12.373 15.42 40.015a1 1 0 0 1 -1 1.068zm-27.766-2h26.692c-1.595-21.217-7.277-37.083-13.346-37.083s-11.751 15.866-13.346 37.083z" fill="#2f3a5a"/><path d="m126.416 113.968-4.919 2.995-1.062.645a1.225 1.225 0 0 1 -1.676-.416l-13.43-22.07a1.241 1.241 0 0 0 -1.042-.585h-69.5a1.212 1.212 0 0 0 -1.022.565l-15.474 24.133a1.216 1.216 0 0 1 -1.677.367l-1.279-.814-4.635-2.936a1.213 1.213 0 0 1 -.377-1.686l14.9-23.25a1.224 1.224 0 0 0 -.109-1.468l-23.805-26.681a1.224 1.224 0 0 1 .1-1.726l5.227-4.652a1.21 1.21 0 0 1 1.716.089l25.164 28.209a1.214 1.214 0 0 0 .913.417h75.155a1.207 1.207 0 0 1 1.042.585l16.2 26.6a1.223 1.223 0 0 1 -.41 1.679z" fill="#f0c191"/><path d="m106.479 91.839h-73.657l-17.487 26.949 1.279.814a1.216 1.216 0 0 0 1.677-.367l15.473-24.135a1.212 1.212 0 0 1 1.022-.565h69.5a1.241 1.241 0 0 1 1.042.585l13.43 22.07a1.225 1.225 0 0 0 1.676.416l1.062-.645z" fill="#ddb087"/><path d="m17.268 120.793a2.227 2.227 0 0 1 -1.188-.345l-5.912-3.748a2.215 2.215 0 0 1 -.986-1.408 2.189 2.189 0 0 1 .3-1.666l14.9-23.246a.227.227 0 0 0 -.019-.27l-23.8-26.678a2.212 2.212 0 0 1 .175-3.132l5.233-4.656a2.211 2.211 0 0 1 3.124.167l25.167 28.211a.218.218 0 0 0 .167.082h75.155a2.219 2.219 0 0 1 1.9 1.073l16.194 26.594a2.237 2.237 0 0 1 -.736 3.047l-5.982 3.641a2.227 2.227 0 0 1 -3.052-.755l-13.433-22.062a.235.235 0 0 0 -.188-.1h-69.5a.215.215 0 0 0 -.177.1l-15.478 24.132a2.177 2.177 0 0 1 -1.39.968 2.254 2.254 0 0 1 -.474.051zm-9.824-63.719a.191.191 0 0 0 -.132.051l-5.239 4.663a.222.222 0 0 0 -.013.317l23.8 26.678a2.228 2.228 0 0 1 .2 2.68l-14.9 23.243a.2.2 0 0 0 -.03.158.225.225 0 0 0 .1.145l5.91 3.749a.231.231 0 0 0 .169.029.2.2 0 0 0 .125-.085l15.478-24.14a2.222 2.222 0 0 1 1.864-1.025h69.5a2.234 2.234 0 0 1 1.884 1.046l13.442 22.088a.226.226 0 0 0 .306.081l5.972-3.635a.224.224 0 0 0 .076-.309l-16.2-26.6a.211.211 0 0 0 -.187-.105h-75.14a2.229 2.229 0 0 1 -1.66-.751l-25.164-28.208a.212.212 0 0 0 -.15-.069z" fill="#2f3a5a"/><path d="m46.725 89.528v-15.918h5.64v15.918" fill="#f0c191"/><path d="m52.365 90.528a1 1 0 0 1 -1-1v-14.918h-3.639v14.918a1 1 0 1 1 -2 0v-15.918a1 1 0 0 1 1-1h5.639a1 1 0 0 1 1 1v15.918a1 1 0 0 1 -1 1z" fill="#2f3a5a"/><path d="m18.79 76.339h39.7a.876.876 0 0 0 .853-.9v-3.66a.876.876 0 0 0 -.853-.9h-39.7" fill="#f0c191"/><path d="m58.494 77.339h-39.704a1 1 0 1 1 0-2h39.557v-3.458h-39.557a1 1 0 1 1 0-2h39.7a1.878 1.878 0 0 1 1.853 1.9v3.662a1.878 1.878 0 0 1 -1.849 1.896z" fill="#2f3a5a"/><path d="m51.788 47.291v3.049a3.252 3.252 0 0 0 3.253 3.253h22.334a3.252 3.252 0 0 0 3.253-3.253v-3.049z" fill="#c1cdd3"/><path d="m77.375 54.593h-22.334a4.258 4.258 0 0 1 -4.253-4.253v-3.049a1 1 0 0 1 1-1h28.84a1 1 0 0 1 1 1v3.049a4.258 4.258 0 0 1 -4.253 4.253zm-24.587-6.3v2.047a2.255 2.255 0 0 0 2.253 2.253h22.334a2.255 2.255 0 0 0 2.253-2.253v-2.049z" fill="#2f3a5a"/><path d="m80.628 47.291v3.049a3.252 3.252 0 0 0 3.253 3.253h12.764a3.252 3.252 0 0 0 3.255-3.253v-3.049z" fill="#da2a47"/><path d="m96.646 54.593h-12.765a4.258 4.258 0 0 1 -4.253-4.253v-3.049a1 1 0 0 1 1-1h19.272a1 1 0 0 1 1 1v3.049a4.258 4.258 0 0 1 -4.254 4.253zm-15.018-6.3v2.047a2.255 2.255 0 0 0 2.253 2.253h12.765a2.254 2.254 0 0 0 2.254-2.253v-2.049z" fill="#2f3a5a"/><path d="m99.9 47.291v3.049a3.252 3.252 0 0 0 3.253 3.253h8.533a3.252 3.252 0 0 0 3.253-3.253v-3.049z" fill="#c1cdd3"/><path d="m111.685 54.593h-8.535a4.258 4.258 0 0 1 -4.25-4.253v-3.049a1 1 0 0 1 1-1h15.04a1 1 0 0 1 1 1v3.049a4.259 4.259 0 0 1 -4.255 4.253zm-10.787-6.3v2.047a2.254 2.254 0 0 0 2.252 2.253h8.535a2.255 2.255 0 0 0 2.253-2.253v-2.049z" fill="#2f3a5a"/><path d="m51.788 47.194v3.143a3.392 3.392 0 0 1 -3.431 3.353h-13.464a3.392 3.392 0 0 1 -3.431-3.353v-3.143z" fill="#da2a47"/><path d="m48.356 54.69h-13.463a4.4 4.4 0 0 1 -4.431-4.353v-3.143a1 1 0 0 1 1-1h20.326a1 1 0 0 1 1 1v3.143a4.4 4.4 0 0 1 -4.432 4.353zm-15.894-6.5v2.143a2.4 2.4 0 0 0 2.431 2.353h13.463a2.4 2.4 0 0 0 2.432-2.353v-2.139z" fill="#2f3a5a"/><path d="m31.462 47.194v3.143a3.3 3.3 0 0 1 -3.253 3.353h-8.533a3.3 3.3 0 0 1 -3.253-3.353v-3.143z" fill="#c1cdd3"/><path d="m28.209 54.69h-8.533a4.309 4.309 0 0 1 -4.253-4.353v-3.143a1 1 0 0 1 1-1h15.039a1 1 0 0 1 1 1v3.143a4.309 4.309 0 0 1 -4.253 4.353zm-10.786-6.5v2.143a2.308 2.308 0 0 0 2.253 2.353h8.533a2.308 2.308 0 0 0 2.253-2.353v-2.139z" fill="#2f3a5a"/></g></svg>