<svg height="512" viewBox="0 0 128 128" width="512" xmlns="http://www.w3.org/2000/svg"><g id="icon"><path d="m74.556 19.84h-21.385a4.436 4.436 0 0 1 -4.43-4.431v-10.978a4.436 4.436 0 0 1 4.43-4.431h21.385a4.436 4.436 0 0 1 4.431 4.431v10.978a4.436 4.436 0 0 1 -4.431 4.431zm-21.385-17.84a2.433 2.433 0 0 0 -2.43 2.431v10.978a2.433 2.433 0 0 0 2.43 2.431h21.385a2.434 2.434 0 0 0 2.431-2.431v-10.978a2.434 2.434 0 0 0 -2.431-2.431z" fill="#2f3a5a"/><path d="m72.611 24.46v-8.274a2.767 2.767 0 0 0 -2.767-2.767h-11.688a2.767 2.767 0 0 0 -2.767 2.767v8.274a51.634 51.634 0 1 0 17.222 0z" fill="#84879c"/><path d="m64 128a52.632 52.632 0 0 1 -9.611-104.379v-7.435a3.771 3.771 0 0 1 3.767-3.767h11.688a3.771 3.771 0 0 1 3.767 3.767v7.435a52.632 52.632 0 0 1 -9.611 104.379zm-5.844-113.581a1.769 1.769 0 0 0 -1.767 1.767v8.274a1 1 0 0 1 -.834.986 50.634 50.634 0 1 0 16.89 0 1 1 0 0 1 -.834-.986v-8.274a1.769 1.769 0 0 0 -1.767-1.767z" fill="#2f3a5a"/><circle cx="64" cy="75.366" fill="#dbe2eb" r="41.71" transform="matrix(.987 -.16 .16 .987 -11.246 11.225)"/><circle cx="64" cy="75.366" fill="#dbe2eb" r="41.71" transform="matrix(.987 -.16 .16 .987 -11.246 11.225)"/><path d="m105.71 75.37a41.711 41.711 0 0 1 -41.71 41.71q-1.17 0-2.34-.06a41.716 41.716 0 0 0 0-83.3q1.17-.06 2.34-.06a41.7 41.7 0 0 1 41.71 41.71z" fill="#bac2d3"/><path d="m64 118.076a42.711 42.711 0 1 1 42.71-42.71 42.758 42.758 0 0 1 -42.71 42.71zm0-83.421a40.711 40.711 0 1 0 40.71 40.711 40.756 40.756 0 0 0 -40.71-40.711z" fill="#2f3a5a"/><path d="m54.905 66.886-16.817 35.007 35.007-16.817 16.817-35.007z" fill="#ef5361"/><path d="m38.088 102.893a1 1 0 0 1 -.9-1.433l16.812-35.007a1.006 1.006 0 0 1 .469-.469l35.01-16.817a1 1 0 0 1 1.334 1.333l-16.813 35.009a1.006 1.006 0 0 1 -.469.469l-35.01 16.816a.989.989 0 0 1 -.433.099zm17.566-35.258-15.431 32.123 32.123-15.431 15.431-32.127z" fill="#2f3a5a"/><path d="m54.905 66.886-16.817 35.007 35.007-16.817z" fill="#4fa4d1"/><path d="m38.088 102.893a1 1 0 0 1 -.9-1.433l16.812-35.007a1 1 0 0 1 1.609-.274l18.191 18.19a1 1 0 0 1 -.274 1.609l-35.005 16.816a.989.989 0 0 1 -.433.099zm17.112-34.303-14.977 31.168 31.168-14.972z" fill="#2f3a5a"/><circle cx="64" cy="75.981" fill="#e1e6e9" r="5.874" transform="matrix(.707 -.707 .707 .707 -34.981 67.509)"/><path d="m64 82.854a6.874 6.874 0 1 1 6.874-6.873 6.881 6.881 0 0 1 -6.874 6.873zm0-11.747a4.874 4.874 0 1 0 4.874 4.874 4.879 4.879 0 0 0 -4.874-4.874z" fill="#2f3a5a"/><g fill="#43567c"><path d="m64 41.561a1 1 0 0 1 -1-1v-2.968a1 1 0 0 1 2 0v2.968a1 1 0 0 1 -1 1z"/><path d="m64 114a1 1 0 0 1 -1-1v-2.968a1 1 0 1 1 2 0v2.968a1 1 0 0 1 -1 1z"/><path d="m101.7 76.3h-2.965a1 1 0 1 1 0-2h2.965a1 1 0 0 1 0 2z"/><path d="m29.265 76.3h-2.965a1 1 0 1 1 0-2h2.968a1 1 0 0 1 0 2z"/></g></g></svg>