<?xml version="1.0" encoding="UTF-8"?>
<svg xmlns="http://www.w3.org/2000/svg" viewBox="0 0 128 128" width="512" height="512"><g id="icon"><path d="M64,1a5.269,5.269,0,1,0,5.269,5.269A5.269,5.269,0,0,0,64,1Z" fill="#c1cdd3"/><path d="M69.269,6.27A5.265,5.265,0,0,1,58.928,7.676a5.156,5.156,0,0,0,2.667.74,5.278,5.278,0,0,0,5.274-5.274,4.94,4.94,0,0,0-.206-1.406A5.238,5.238,0,0,1,69.269,6.27Z" fill="#bac2d3"/><path d="M64,12.538a6.269,6.269,0,1,1,6.269-6.269A6.276,6.276,0,0,1,64,12.538ZM64,2a4.269,4.269,0,1,0,4.269,4.269A4.274,4.274,0,0,0,64,2Z" fill="#2f3a5a"/><path d="M95.39,101.743s-2.721-4.8-.961-14.567-1.92-19.689,5.763-24.012c0,0,1.441-4.962-4.642-4.161s-8.164,6.4-9.444,12.966-4.8,9.6-9.445,7.523-5.282-1.6-11.765-10.085-9.2-10.739-13.207-10.492-3.361,3.8-1.44,5.307S58.893,75.49,58.893,75.49,46.727,59.432,41.765,58.9s-6.609,1.865-6.609,1.865-1.235-1.44-4.436-1.92-5.763,1.921-5.923,3.682,12.646,11.2,20.329,21.77,27.053,32.175,27.053,32.175Z" fill="#e8c79c"/><path d="M72.18,117.469a1,1,0,0,1-.745-.333c-.194-.216-19.492-21.768-27.117-32.254-4.329-5.951-10.306-11.545-14.671-15.629-4.527-4.237-5.954-5.633-5.846-6.82a4.958,4.958,0,0,1,2-3.229,6.641,6.641,0,0,1,5.066-1.351,9.829,9.829,0,0,1,4.239,1.56c1.016-.811,3.108-1.9,6.765-1.51,1.56.168,3.659,1.593,5.87,3.556a3.4,3.4,0,0,1,.144-1.132c.258-.83,1.087-2.246,3.742-2.41,4.664-.281,7.733,2.6,14.062,10.883,5.569,7.287,6.658,7.752,9.89,9.132.453.193.944.4,1.49.648a4.645,4.645,0,0,0,4.181.12c1.81-.939,3.185-3.4,3.873-6.923,1.229-6.3,3.414-12.861,10.3-13.766,2.331-.307,4.02.127,5.019,1.29a4.831,4.831,0,0,1,.715,4.142,1,1,0,0,1-.47.593C96,66.672,96,71.6,96,77.835a52.767,52.767,0,0,1-.585,9.519c-1.663,9.219.823,13.854.849,13.9a1,1,0,0,1-.337,1.333L72.715,117.314A1,1,0,0,1,72.18,117.469ZM25.809,62.5c.365.761,2.824,3.063,5.2,5.29C35.437,71.932,41.5,77.6,45.935,83.706c6.834,9.4,23.18,27.824,26.425,31.464l21.762-13.807c-.731-1.846-2.076-6.609-.676-14.365A51.241,51.241,0,0,0,94,77.835c0-6.19,0-12.047,5.305-15.308a2.534,2.534,0,0,0-.388-1.928c-.664-.765-2.126-.749-3.236-.6-5.609.739-7.445,6.284-8.593,12.166-.819,4.2-2.518,7.072-4.915,8.315a6.631,6.631,0,0,1-5.92-.07c-.534-.24-1.015-.445-1.457-.633C71.3,78.279,69.99,77.72,64.1,70.015c-6.3-8.241-8.833-10.314-12.351-10.1-.764.047-1.723.26-1.955,1.007a2.642,2.642,0,0,0,1.07,2.515c1.984,1.553,8.154,10.477,8.851,11.488A1,1,0,0,1,58.1,76.094c-4.6-6.075-13.138-15.847-16.439-16.2-4.223-.45-5.629,1.373-5.686,1.451a1.011,1.011,0,0,1-1.574.07,6.777,6.777,0,0,0-3.825-1.581,4.61,4.61,0,0,0-3.534.947A3.171,3.171,0,0,0,25.809,62.5Z" fill="#2f3a5a"/><rect x="69.118" y="103.28" width="32.737" height="16.51" rx="1.244" transform="translate(-47.5 66.12) rotate(-33.676)" fill="#9297ab"/><path d="M102.647,110.023,77.476,126.787a1.24,1.24,0,0,1-1.723-.345l-7.776-11.665a1.237,1.237,0,0,1,.344-1.722l2.018-1.349,6.566,9.854a1.242,1.242,0,0,0,1.723.354l23.162-15.435,1.2,1.812A1.251,1.251,0,0,1,102.647,110.023Z" fill="#84879c"/><path d="M76.792,128a2.245,2.245,0,0,1-1.872-1l-7.774-11.668a2.242,2.242,0,0,1,.623-3.112L92.94,95.447a2.245,2.245,0,0,1,3.113.624l7.775,11.667a2.243,2.243,0,0,1-.624,3.112L78.033,127.623A2.236,2.236,0,0,1,76.792,128ZM94.184,97.07a.238.238,0,0,0-.135.041L68.878,113.884a.245.245,0,0,0-.068.339l7.774,11.668a.246.246,0,0,0,.34.068L102.1,109.186a.238.238,0,0,0,.105-.155.243.243,0,0,0-.036-.184L94.389,97.179a.248.248,0,0,0-.2-.109Z" fill="#2f3a5a"/><path d="M64,8.239A48.142,48.142,0,0,0,15.858,56.381c0,.55.024,1.094.042,1.64h96.2c.018-.546.042-1.09.042-1.64A48.142,48.142,0,0,0,64,8.239Z" fill="#c1cdd3"/><path d="M112.142,56.377c0,.558-.024,1.1-.036,1.649H93.5c.024-.546.049-1.091.049-1.649A48.138,48.138,0,0,0,54.7,9.146,47.062,47.062,0,0,1,64,8.237,48.141,48.141,0,0,1,112.142,56.377Z" fill="#bac2d3"/><path d="M113.067,59.021H14.933L14.89,57.75c-.016-.455-.032-.91-.032-1.37a49.142,49.142,0,0,1,98.284,0c0,.474-.017.943-.033,1.412Zm-96.2-2h94.264c.006-.213.01-.426.01-.641a47.142,47.142,0,0,0-94.284,0C16.858,56.6,16.862,56.808,16.868,57.021Z" fill="#2f3a5a"/><path d="M118.179,56.072H9.821a2.708,2.708,0,1,0,0,5.416H118.179a2.708,2.708,0,0,0,0-5.416Z" fill="#c1cdd3"/><path d="M120.883,58.777a2.709,2.709,0,0,1-2.7,2.716H9.824a2.685,2.685,0,0,1-2.606-1.988.7.7,0,0,0,.158.012H115.731a2.708,2.708,0,0,0,2.715-2.7,2.4,2.4,0,0,0-.109-.728A2.691,2.691,0,0,1,120.883,58.777Z" fill="#bac2d3"/><path d="M118.179,62.488H9.821a3.708,3.708,0,1,1,0-7.416H118.179a3.708,3.708,0,0,1,0,7.416ZM9.821,57.072a1.708,1.708,0,0,0,0,3.416H118.179a1.708,1.708,0,0,0,0-3.416Z" fill="#2f3a5a"/><path d="M50.91,79.1a1,1,0,0,1-.833-.445c-3.629-5.444-15.2-16.329-15.314-16.438a1,1,0,0,1,1.369-1.459c.482.453,11.854,11.154,15.609,16.787A1,1,0,0,1,50.91,79.1Z" fill="#2f3a5a"/></g></svg>
