<svg height="512" viewBox="0 0 128 128" width="512" xmlns="http://www.w3.org/2000/svg"><g id="icon"><path d="m104.681 125.129c2.079-20.814.147-42.5-3.276-62.279a8.837 8.837 0 0 0 -7.791-7.25 269.967 269.967 0 0 0 -58.665 0 8.837 8.837 0 0 0 -7.791 7.25c-3.423 19.782-5.355 41.465-3.276 62.279z" fill="#84879c"/><path d="m104.681 126.129h-80.8a1 1 0 0 1 -1-.9c-1.831-18.326-.725-39.371 3.286-62.549a9.889 9.889 0 0 1 8.668-8.074 272.534 272.534 0 0 1 58.882 0 9.89 9.89 0 0 1 8.668 8.074c4.01 23.179 5.116 44.223 3.285 62.549a1 1 0 0 1 -.989.9zm-79.891-2h78.983c1.689-17.934.561-38.486-3.353-61.108a7.881 7.881 0 0 0 -6.914-6.427 270.631 270.631 0 0 0 -58.448 0 7.881 7.881 0 0 0 -6.914 6.427c-3.915 22.621-5.044 43.173-3.354 61.108z" fill="#43567c"/><path d="m88.294 35.37c-1.465-.22-2.892 1.021-3.451 4.338s-.036 7.452 1.429 7.672 3.32-3.558 3.878-6.875-.39-4.914-1.856-5.135z" fill="#e8c79c"/><path d="m86.4 48.39a1.8 1.8 0 0 1 -.273-.021 2.086 2.086 0 0 1 -1.387-.91c-1.167-1.609-1.324-5.28-.88-7.917.892-5.294 3.736-5.292 4.586-5.161a3.026 3.026 0 0 1 2.036 1.244c.812 1.12 1.033 2.817.658 5.046-.54 3.201-2.399 7.719-4.74 7.719zm1.587-12.043c-.967 0-1.784 1.324-2.154 3.527-.545 3.231.1 6.21.637 6.532.538-.142 2.144-2.785 2.7-6.067.371-2.2-.031-3.163-.3-3.54a1.039 1.039 0 0 0 -.714-.44 1.1 1.1 0 0 0 -.172-.012z" fill="#43567c"/><path d="m39.712 35.369c1.462-.219 2.886 1.022 3.445 4.339s.039 7.451-1.423 7.671-3.314-3.559-3.873-6.879.388-4.911 1.851-5.131z" fill="#e8c79c"/><path d="m41.609 48.389c-2.34 0-4.194-4.519-4.734-7.72-.375-2.231-.154-3.929.657-5.047a3.015 3.015 0 0 1 2.031-1.242c.843-.131 3.688-.133 4.58 5.162.444 2.639.288 6.312-.877 7.919a2.084 2.084 0 0 1 -1.384.907 1.793 1.793 0 0 1 -.273.021zm-1.588-12.043a1.111 1.111 0 0 0 -.161.012 1.018 1.018 0 0 0 -.709.437c-.273.377-.675 1.337-.3 3.542.549 3.279 2.149 5.923 2.777 6.053.449-.308 1.086-3.288.542-6.516-.37-2.203-1.185-3.528-2.149-3.528z" fill="#43567c"/><path d="m85.235 76.281c-10.412-4.341-7.135-17.788-7.135-17.788h-28.2s3.277 13.447-7.135 17.788c-17.326 7.224-27.865 3.204-27.865 32.819v17.9h98.2v-17.9c0-29.615-10.539-25.595-27.865-32.819z" fill="#f0c191"/><path d="m113.1 128h-98.2a1 1 0 0 1 -1-1v-17.9c0-24.485 7.188-26.732 19.1-30.456 2.808-.878 5.991-1.874 9.38-3.287 3.947-1.646 6.254-4.9 6.857-9.667a21.717 21.717 0 0 0 -.309-6.962 1 1 0 0 1 .971-1.236h28.201a1 1 0 0 1 .971 1.236 21.717 21.717 0 0 0 -.309 6.962c.6 4.769 2.91 8.021 6.857 9.667 3.389 1.413 6.572 2.409 9.38 3.287 11.91 3.724 19.1 5.971 19.1 30.456v17.9a1 1 0 0 1 -.999 1zm-97.2-2h96.2v-16.9c0-23.015-6.285-24.98-17.694-28.547-2.85-.891-6.079-1.9-9.553-3.35-9.138-3.81-8.477-14.136-7.947-17.711h-25.806c.53 3.575 1.191 13.9-7.947 17.711-3.474 1.449-6.7 2.459-9.553 3.35-11.413 3.568-17.7 5.533-17.7 28.547z" fill="#43567c"/><path d="m113.1 109.1v17.9h-98.195v-17.9c0-29.61 10.528-25.593 27.86-32.817a5.683 5.683 0 0 0 .777-.372 22.452 22.452 0 0 0 40.915 0 5.64 5.64 0 0 0 .778.372c17.331 7.226 27.865 3.209 27.865 32.817z" fill="#4fa4d1"/><g opacity=".5"><path d="m113.1 109.1v17.9h-10.971v-17.9c0-24.523-7.224-25.981-19.551-29.853a20.423 20.423 0 0 0 1.879-3.336 5.64 5.64 0 0 0 .778.372c17.331 7.226 27.865 3.209 27.865 32.817z" fill="#477ea8"/></g><ellipse cx="64" cy="41.711" fill="#f3cda7" rx="22.557" ry="29"/><path d="m64 71.711c-9.087 0-23.557-13.73-23.557-30 0-16.542 10.568-30 23.557-30s23.557 13.458 23.557 30c0 10.083-5.245 17.588-8.372 21.165-4.766 5.449-10.585 8.835-15.185 8.835zm0-58c-11.887 0-21.557 12.561-21.557 28 0 15.895 14.367 28 21.557 28 7.379 0 21.557-11.824 21.557-28 0-15.44-9.67-28.001-21.557-28.001z" fill="#43567c"/><path d="m84.914 21.41c-2.6-7.523-6.576 2.453-6.576 2.453a29.121 29.121 0 0 1 5.779 18.337 1.234 1.234 0 0 0 1.221 1.29 1.219 1.219 0 0 0 1.224-1.157c.175-3.592.506-14.679-1.648-20.923z" fill="#9297ab"/><path d="m85.338 44.489a2.191 2.191 0 0 1 -1.585-.671 2.282 2.282 0 0 1 -.635-1.65 28.393 28.393 0 0 0 -5.546-17.663 1 1 0 0 1 -.162-1.012c.553-1.388 2.554-5.89 5.171-5.89h.054c2.04.048 2.931 2.632 3.224 3.481 2.166 6.277 1.912 16.984 1.7 21.3a2.22 2.22 0 0 1 -2.221 2.105zm-5.85-20.779a30.254 30.254 0 0 1 5.629 18.52.267.267 0 0 0 .071.2.225.225 0 0 0 .375-.142c.16-3.274.516-14.432-1.594-20.547-.577-1.672-1.139-2.128-1.381-2.133-.788-.053-2.194 2.05-3.1 4.102z" fill="#43567c"/><path d="m43.22 21.41c-2.154 6.244-1.823 17.331-1.648 20.922a1.219 1.219 0 0 0 1.228 1.157 1.234 1.234 0 0 0 1.221-1.29 29.121 29.121 0 0 1 5.779-18.336s-3.984-9.976-6.58-2.453z" fill="#9297ab"/><path d="m42.8 44.489a2.22 2.22 0 0 1 -2.223-2.109c-.209-4.312-.464-15.019 1.7-21.3.293-.849 1.184-3.433 3.224-3.481 2.671-.1 4.668 4.492 5.226 5.89a1 1 0 0 1 -.163 1.012 28.393 28.393 0 0 0 -5.546 17.663 2.279 2.279 0 0 1 -.634 1.649 2.192 2.192 0 0 1 -1.584.676zm.42-23.079.946.326c-2.11 6.115-1.754 17.273-1.595 20.547a.226.226 0 0 0 .374.143.259.259 0 0 0 .072-.2 30.261 30.261 0 0 1 5.629-18.52c-.906-2.052-2.294-4.172-3.1-4.107-.241 0-.8.461-1.38 2.133z" fill="#43567c"/><path d="m84.152 4.671a4.14 4.14 0 0 0 -3.818-3.671h-32.668a4.14 4.14 0 0 0 -3.818 3.671l-3.841 20.957h47.986z" fill="#967169"/><path d="m87.989 25.629h-47.978l.679-3.711h42.751l-3.829-20.918h.719a4.136 4.136 0 0 1 3.819 3.672z" fill="#a67f74"/><path d="m87.994 26.628h-47.988a1 1 0 0 1 -.983-1.18l3.841-20.957a5.157 5.157 0 0 1 4.802-4.491h32.668a5.157 5.157 0 0 1 4.8 4.491l3.841 20.957a1 1 0 0 1 -.983 1.18zm-46.787-2h45.586l-3.624-19.777a3.177 3.177 0 0 0 -2.835-2.851h-32.668a3.177 3.177 0 0 0 -2.835 2.851z" fill="#43567c"/><path d="m93.3 31.741-5.3-6.113h-47.993l-5.3 6.113c-.8.922-.254 2.537.857 2.537h56.876c1.111 0 1.66-1.615.86-2.537z" fill="#a67f74"/><path d="m92.44 35.278h-56.88a2.2 2.2 0 0 1 -1.992-1.349 2.659 2.659 0 0 1 .379-2.843l5.3-6.113a1 1 0 0 1 .755-.345h47.992a1 1 0 0 1 .755.345l5.3 6.113a2.659 2.659 0 0 1 .379 2.843 2.2 2.2 0 0 1 -1.988 1.349zm-51.977-8.65-5.005 5.772a.679.679 0 0 0 -.07.7c.008.018.084.179.172.179h56.88c.088 0 .164-.161.172-.179a.679.679 0 0 0 -.07-.7l-5-5.768z" fill="#43567c"/><path d="m113.1 128h-98.195a1 1 0 0 1 -1-1v-17.9c0-24.482 7.188-26.73 19.1-30.454 2.808-.878 5.99-1.873 9.379-3.286a4.754 4.754 0 0 0 .646-.306 1 1 0 0 1 1.428.445 21.451 21.451 0 0 0 39.091 0 1 1 0 0 1 1.427-.446 4.585 4.585 0 0 0 .643.3c3.393 1.415 6.576 2.41 9.384 3.288 11.908 3.724 19.1 5.972 19.1 30.454v17.905a1 1 0 0 1 -1.003 1zm-97.19-2h96.19v-16.9c0-23.012-6.285-24.977-17.694-28.545-2.826-.884-6.027-1.885-9.471-3.315a23.453 23.453 0 0 1 -41.861 0c-3.441 1.429-6.643 2.43-9.471 3.315-11.414 3.57-17.698 5.535-17.698 28.545z" fill="#43567c"/><path d="m89.654 75.973s-11.954 14.187-12.142 50.889h7.266s-1.978-36.382 11.03-48.9z" fill="#84879c"/><path d="m84.778 127.862h-7.266a1 1 0 0 1 -1-1c.188-36.648 11.88-50.943 12.378-51.533a1 1 0 0 1 1.072-.308l6.153 1.989a1 1 0 0 1 .386 1.672c-12.529 12.062-10.744 47.767-10.724 48.126a1 1 0 0 1 -1 1.054zm-6.257-2h5.216a143.74 143.74 0 0 1 .685-18.862c1.422-13.39 4.636-22.991 9.562-28.578l-3.959-1.279c-2.025 2.845-11.156 17.378-11.504 48.719z" fill="#43567c"/><path d="m38.262 76.208s11.956 13.952 12.143 50.654h-7.266s1.974-36.147-11.03-48.662z" fill="#84879c"/><path d="m50.4 127.862h-7.261a1 1 0 0 1 -1-1.054c.02-.357 1.8-35.835-10.724-47.891a1 1 0 0 1 .385-1.672l6.154-1.988a1 1 0 0 1 1.066.3c.5.581 12.2 14.651 12.383 51.3a1 1 0 0 1 -1 1zm-6.224-2h5.224c-.2-18.17-3.369-30.454-6.017-37.6a45.858 45.858 0 0 0 -5.483-10.886l-3.966 1.282c4.925 5.582 8.14 15.143 9.562 28.46a142.121 142.121 0 0 1 .684 18.744z" fill="#43567c"/></g></svg>