<svg height="512" viewBox="0 0 128 128" width="512" xmlns="http://www.w3.org/2000/svg"><g id="icon"><path d="m28.19 29.787h-13.434a1.56 1.56 0 0 0 -1.559 1.56v3.927h16.553v-3.927a1.561 1.561 0 0 0 -1.56-1.56z" fill="#84879c"/><path d="m30.75 36.274h-18.55v-4.927a2.563 2.563 0 0 1 2.56-2.559h13.43a2.562 2.562 0 0 1 2.56 2.559zm-16.554-2h14.554v-2.927a.56.56 0 0 0 -.56-.559h-13.434a.56.56 0 0 0 -.56.559z" fill="#2f3a5a"/><path d="m91.675 37.367h-55.35l5.167-22.7a3.423 3.423 0 0 1 3.354-2.741h38.308a3.423 3.423 0 0 1 3.354 2.741z" fill="#9297ab"/><path d="m92.929 38.367h-57.858l5.447-23.92a4.429 4.429 0 0 1 4.329-3.519h38.306a4.436 4.436 0 0 1 4.334 3.542zm-55.352-2h52.846l-4.89-21.476a2.438 2.438 0 0 0 -2.38-1.963h-38.306a2.431 2.431 0 0 0 -2.375 1.94z" fill="#2f3a5a"/><rect fill="#9297ab" height="80.798" rx="8.136" width="126" x="1" y="35.274"/><path d="m127 43.41v64.53a8.132 8.132 0 0 1 -8.14 8.13h-109.72a8.128 8.128 0 0 1 -7.06-4.08h114.59a5.625 5.625 0 0 0 5.62-5.62v-69.56a5.42 5.42 0 0 0 -.06-.81 8.131 8.131 0 0 1 4.77 7.41z" fill="#84879c"/><path d="m118.864 117.072h-109.728a9.146 9.146 0 0 1 -9.136-9.135v-64.527a9.147 9.147 0 0 1 9.136-9.136h109.728a9.147 9.147 0 0 1 9.136 9.136v64.527a9.146 9.146 0 0 1 -9.136 9.135zm-109.728-80.798a7.144 7.144 0 0 0 -7.136 7.136v64.527a7.144 7.144 0 0 0 7.136 7.135h109.728a7.144 7.144 0 0 0 7.136-7.135v-64.527a7.144 7.144 0 0 0 -7.136-7.136z" fill="#2f3a5a"/><circle cx="64" cy="75.673" fill="#707583" r="32.151" transform="matrix(.982 -.189 .189 .982 -13.156 13.468)"/><path d="m64 108.824a33.151 33.151 0 1 1 33.15-33.151 33.188 33.188 0 0 1 -33.15 33.151zm0-64.3a31.151 31.151 0 1 0 31.15 31.149 31.186 31.186 0 0 0 -31.15-31.151z" fill="#2f3a5a"/><circle cx="64" cy="75.673" fill="#384868" r="24.078" transform="matrix(.982 -.189 .189 .982 -13.156 13.468)"/><path d="m64 100.751a25.078 25.078 0 1 1 25.078-25.078 25.106 25.106 0 0 1 -25.078 25.078zm0-48.151a23.078 23.078 0 1 0 23.078 23.073 23.1 23.1 0 0 0 -23.078-23.073z" fill="#2f3a5a"/><circle cx="64" cy="75.673" fill="#4fa4d1" r="17.123" transform="matrix(.982 -.189 .189 .982 -13.156 13.468)"/><path d="m64 93.8a18.123 18.123 0 1 1 18.123-18.127 18.143 18.143 0 0 1 -18.123 18.127zm0-34.25a16.123 16.123 0 1 0 16.123 16.123 16.141 16.141 0 0 0 -16.123-16.123z" fill="#2f3a5a"/><g opacity=".5"><circle cx="56.381" cy="70.439" fill="#dbe2eb" r="5.234" transform="matrix(.982 -.189 .189 .982 -12.303 11.933)"/></g><path d="m78.476 18.961v10.668a1.321 1.321 0 0 1 -1.32 1.32h-26.3a1.313 1.313 0 0 1 -1.32-1.32v-10.668a1.322 1.322 0 0 1 1.32-1.32h26.3a1.33 1.33 0 0 1 1.32 1.32z" fill="#e1e6e9"/><path d="m66.311 17.641-7.157 13.308h-4.532l7.158-13.308z" fill="#fff"/><path d="m70.257 17.641-7.157 13.308h-2.273l7.158-13.308z" fill="#fff"/><path d="m116.063 42.753h-7.048a2.576 2.576 0 1 0 0 5.151h7.048a2.576 2.576 0 1 0 0-5.151z" fill="#ffc943"/><g fill="#2f3a5a"><path d="m116.063 48.9h-7.048a3.576 3.576 0 1 1 0-7.151h7.048a3.576 3.576 0 1 1 0 7.151zm-7.048-5.151a1.576 1.576 0 1 0 0 3.151h7.048a1.576 1.576 0 1 0 0-3.151z"/><path d="m77.156 31.949h-26.3a2.323 2.323 0 0 1 -2.321-2.32v-10.668a2.323 2.323 0 0 1 2.321-2.32h26.3a2.322 2.322 0 0 1 2.32 2.32v10.668a2.322 2.322 0 0 1 -2.32 2.32zm-26.3-13.308a.321.321 0 0 0 -.321.32v10.668a.313.313 0 0 0 .321.32h26.3a.32.32 0 0 0 .32-.32v-10.668a.333.333 0 0 0 -.32-.32z"/></g></g></svg>